<mxfile host="Electron" agent="Mozilla/5.0 (Windows NT 10.0; Win64; x64) AppleWebKit/537.36 (KHTML, like Gecko) draw.io/28.0.6 Chrome/138.0.7204.100 Electron/37.2.3 Safari/537.36" version="28.0.6">
  <diagram name="Página-1" id="6Oo9-XroAk3alL-hqOq5">
    <mxGraphModel dx="1188" dy="701" grid="0" gridSize="10" guides="1" tooltips="1" connect="1" arrows="1" fold="1" page="1" pageScale="1" pageWidth="827" pageHeight="1169" math="0" shadow="0">
      <root>
        <mxCell id="0" />
        <mxCell id="1" parent="0" />
        <mxCell id="olBCJt66AOL4l6c63fx9-1" value="Revisión y diseño de banner de nombres de asignaturas Blackboard" style="shape=table;startSize=30;container=1;collapsible=0;childLayout=tableLayout;fixedRows=1;rowLines=0;fontStyle=0;strokeColor=default;fontSize=14;fontFamily=Times New Roman;" vertex="1" parent="1">
          <mxGeometry x="23" y="16" width="386.44827586206895" height="119.4583333333334" as="geometry" />
        </mxCell>
        <mxCell id="olBCJt66AOL4l6c63fx9-2" value="" style="shape=tableRow;horizontal=0;startSize=0;swimlaneHead=0;swimlaneBody=0;top=0;left=0;bottom=0;right=0;collapsible=0;dropTarget=0;fillColor=none;points=[[0,0.5],[1,0.5]];portConstraint=eastwest;strokeColor=inherit;fontSize=16;fontFamily=Times New Roman;" vertex="1" parent="olBCJt66AOL4l6c63fx9-1">
          <mxGeometry y="30" width="386.44827586206895" height="26" as="geometry" />
        </mxCell>
        <mxCell id="olBCJt66AOL4l6c63fx9-3" value="&lt;font style=&quot;font-size: 14px;&quot;&gt;Detalle&lt;/font&gt;&lt;div&gt;&lt;br&gt;&lt;/div&gt;" style="shape=partialRectangle;html=1;whiteSpace=wrap;connectable=0;fillColor=none;top=0;left=0;bottom=0;right=0;overflow=hidden;pointerEvents=1;strokeColor=inherit;fontSize=16;fontFamily=Times New Roman;" vertex="1" parent="olBCJt66AOL4l6c63fx9-2">
          <mxGeometry width="71" height="26" as="geometry">
            <mxRectangle width="71" height="26" as="alternateBounds" />
          </mxGeometry>
        </mxCell>
        <mxCell id="olBCJt66AOL4l6c63fx9-4" value="&lt;font style=&quot;font-size: 14px;&quot;&gt;Ciclo 01-2025&lt;/font&gt;" style="shape=partialRectangle;html=1;whiteSpace=wrap;connectable=0;fillColor=none;top=0;left=0;bottom=0;right=0;align=left;spacingLeft=6;overflow=hidden;strokeColor=inherit;fontSize=16;fontFamily=Times New Roman;" vertex="1" parent="olBCJt66AOL4l6c63fx9-2">
          <mxGeometry x="71" width="315" height="26" as="geometry">
            <mxRectangle width="315" height="26" as="alternateBounds" />
          </mxGeometry>
        </mxCell>
        <mxCell id="olBCJt66AOL4l6c63fx9-5" value="" style="shape=tableRow;horizontal=0;startSize=0;swimlaneHead=0;swimlaneBody=0;top=0;left=0;bottom=0;right=0;collapsible=0;dropTarget=0;fillColor=none;points=[[0,0.5],[1,0.5]];portConstraint=eastwest;strokeColor=inherit;fontSize=16;fontFamily=Times New Roman;" vertex="1" parent="olBCJt66AOL4l6c63fx9-1">
          <mxGeometry y="56" width="386.44827586206895" height="43" as="geometry" />
        </mxCell>
        <mxCell id="olBCJt66AOL4l6c63fx9-6" value="&lt;font style=&quot;font-size: 14px;&quot;&gt;Encargado&lt;/font&gt;" style="shape=partialRectangle;html=1;whiteSpace=wrap;connectable=0;fillColor=none;top=0;left=0;bottom=0;right=0;overflow=hidden;strokeColor=inherit;fontSize=16;fontFamily=Times New Roman;" vertex="1" parent="olBCJt66AOL4l6c63fx9-5">
          <mxGeometry width="71" height="43" as="geometry">
            <mxRectangle width="71" height="43" as="alternateBounds" />
          </mxGeometry>
        </mxCell>
        <mxCell id="olBCJt66AOL4l6c63fx9-7" value="&lt;div&gt;&lt;span style=&quot;font-size: 14px;&quot;&gt;Fátima Hernández, David Segura y Luis Lemus&lt;/span&gt;&lt;/div&gt;" style="shape=partialRectangle;html=1;whiteSpace=wrap;connectable=0;fillColor=none;top=0;left=0;bottom=0;right=0;align=left;spacingLeft=6;overflow=hidden;strokeColor=inherit;fontSize=16;fontFamily=Times New Roman;" vertex="1" parent="olBCJt66AOL4l6c63fx9-5">
          <mxGeometry x="71" width="315" height="43" as="geometry">
            <mxRectangle width="315" height="43" as="alternateBounds" />
          </mxGeometry>
        </mxCell>
        <mxCell id="olBCJt66AOL4l6c63fx9-8" value="" style="shape=tableRow;horizontal=0;startSize=0;swimlaneHead=0;swimlaneBody=0;top=0;left=0;bottom=0;right=0;collapsible=0;dropTarget=0;fillColor=none;points=[[0,0.5],[1,0.5]];portConstraint=eastwest;strokeColor=inherit;fontSize=16;fontFamily=Times New Roman;" vertex="1" parent="olBCJt66AOL4l6c63fx9-1">
          <mxGeometry y="99" width="386.44827586206895" height="20" as="geometry" />
        </mxCell>
        <mxCell id="olBCJt66AOL4l6c63fx9-9" value="" style="shape=partialRectangle;html=1;whiteSpace=wrap;connectable=0;fillColor=none;top=0;left=0;bottom=0;right=0;overflow=hidden;strokeColor=inherit;fontSize=16;fontFamily=Times New Roman;" vertex="1" parent="olBCJt66AOL4l6c63fx9-8">
          <mxGeometry width="71" height="20" as="geometry">
            <mxRectangle width="71" height="20" as="alternateBounds" />
          </mxGeometry>
        </mxCell>
        <mxCell id="olBCJt66AOL4l6c63fx9-10" value="" style="shape=partialRectangle;html=1;whiteSpace=wrap;connectable=0;fillColor=none;top=0;left=0;bottom=0;right=0;align=left;spacingLeft=6;overflow=hidden;strokeColor=inherit;fontSize=16;fontFamily=Times New Roman;" vertex="1" parent="olBCJt66AOL4l6c63fx9-8">
          <mxGeometry x="71" width="315" height="20" as="geometry">
            <mxRectangle width="315" height="20" as="alternateBounds" />
          </mxGeometry>
        </mxCell>
        <mxCell id="olBCJt66AOL4l6c63fx9-16" value="" style="edgeStyle=orthogonalEdgeStyle;rounded=0;orthogonalLoop=1;jettySize=auto;html=1;fontSize=13;" edge="1" parent="1" source="olBCJt66AOL4l6c63fx9-11" target="olBCJt66AOL4l6c63fx9-15">
          <mxGeometry relative="1" as="geometry" />
        </mxCell>
        <mxCell id="olBCJt66AOL4l6c63fx9-11" value="Revisión y diseño de banner de nombres de asignaturas Blackboard" style="rounded=0;whiteSpace=wrap;html=1;fillColor=#dae8fc;strokeColor=#6c8ebf;fontFamily=Times New Roman;fontSize=13;" vertex="1" parent="1">
          <mxGeometry x="298" y="168" width="248" height="42" as="geometry" />
        </mxCell>
        <mxCell id="olBCJt66AOL4l6c63fx9-20" value="" style="edgeStyle=orthogonalEdgeStyle;rounded=0;orthogonalLoop=1;jettySize=auto;html=1;fontSize=13;" edge="1" parent="1" source="olBCJt66AOL4l6c63fx9-15" target="olBCJt66AOL4l6c63fx9-19">
          <mxGeometry relative="1" as="geometry" />
        </mxCell>
        <mxCell id="olBCJt66AOL4l6c63fx9-15" value="El área de diseño descarga o solicita el listado de materias al área técnica que serán impartidas en el ciclo correspondiente" style="whiteSpace=wrap;html=1;fontSize=13;fontFamily=Times New Roman;rounded=0;" vertex="1" parent="1">
          <mxGeometry x="297" y="244" width="249" height="59" as="geometry" />
        </mxCell>
        <mxCell id="olBCJt66AOL4l6c63fx9-22" value="" style="edgeStyle=orthogonalEdgeStyle;rounded=0;orthogonalLoop=1;jettySize=auto;html=1;fontSize=13;" edge="1" parent="1" source="olBCJt66AOL4l6c63fx9-19" target="olBCJt66AOL4l6c63fx9-21">
          <mxGeometry relative="1" as="geometry" />
        </mxCell>
        <mxCell id="olBCJt66AOL4l6c63fx9-19" value="El área de diseño realiza 3 propuestas utilizando línea gráfica institucional" style="whiteSpace=wrap;html=1;fontSize=13;fontFamily=Times New Roman;rounded=0;" vertex="1" parent="1">
          <mxGeometry x="334" y="331" width="176" height="43" as="geometry" />
        </mxCell>
        <mxCell id="olBCJt66AOL4l6c63fx9-26" value="" style="edgeStyle=orthogonalEdgeStyle;rounded=0;orthogonalLoop=1;jettySize=auto;html=1;fontSize=13;" edge="1" parent="1" source="olBCJt66AOL4l6c63fx9-21" target="olBCJt66AOL4l6c63fx9-25">
          <mxGeometry relative="1" as="geometry" />
        </mxCell>
        <mxCell id="olBCJt66AOL4l6c63fx9-21" value="Envío de propuesta a la Dirección de Educación Virtual para autorizar" style="whiteSpace=wrap;html=1;fontSize=13;fontFamily=Times New Roman;rounded=0;" vertex="1" parent="1">
          <mxGeometry x="337" y="404" width="170" height="60" as="geometry" />
        </mxCell>
        <mxCell id="olBCJt66AOL4l6c63fx9-28" style="edgeStyle=orthogonalEdgeStyle;rounded=0;orthogonalLoop=1;jettySize=auto;html=1;exitX=0;exitY=0.5;exitDx=0;exitDy=0;entryX=0;entryY=0.5;entryDx=0;entryDy=0;fontSize=13;" edge="1" parent="1" source="olBCJt66AOL4l6c63fx9-25" target="olBCJt66AOL4l6c63fx9-19">
          <mxGeometry relative="1" as="geometry" />
        </mxCell>
        <mxCell id="olBCJt66AOL4l6c63fx9-31" value="" style="edgeStyle=orthogonalEdgeStyle;rounded=0;orthogonalLoop=1;jettySize=auto;html=1;fontSize=13;" edge="1" parent="1" source="olBCJt66AOL4l6c63fx9-25" target="olBCJt66AOL4l6c63fx9-30">
          <mxGeometry relative="1" as="geometry" />
        </mxCell>
        <mxCell id="olBCJt66AOL4l6c63fx9-25" value="¿Autorizado?" style="rhombus;whiteSpace=wrap;html=1;fontSize=13;fontFamily=Times New Roman;rounded=0;" vertex="1" parent="1">
          <mxGeometry x="364" y="482" width="116" height="80" as="geometry" />
        </mxCell>
        <mxCell id="olBCJt66AOL4l6c63fx9-29" value="&lt;font style=&quot;font-size: 12px;&quot;&gt;NO&lt;/font&gt;" style="text;html=1;align=center;verticalAlign=middle;resizable=0;points=[];autosize=1;strokeColor=none;fillColor=none;fontSize=13;" vertex="1" parent="1">
          <mxGeometry x="341" y="525" width="36" height="28" as="geometry" />
        </mxCell>
        <mxCell id="olBCJt66AOL4l6c63fx9-33" value="" style="edgeStyle=orthogonalEdgeStyle;rounded=0;orthogonalLoop=1;jettySize=auto;html=1;fontSize=13;" edge="1" parent="1" source="olBCJt66AOL4l6c63fx9-30" target="olBCJt66AOL4l6c63fx9-32">
          <mxGeometry relative="1" as="geometry" />
        </mxCell>
        <mxCell id="olBCJt66AOL4l6c63fx9-30" value="&lt;font&gt;Crear el banner para cada una de las aulas con vigencia de un año&lt;/font&gt;" style="whiteSpace=wrap;html=1;fontSize=13;fontFamily=Times New Roman;rounded=0;" vertex="1" parent="1">
          <mxGeometry x="512.5" y="569" width="212" height="37" as="geometry" />
        </mxCell>
        <mxCell id="olBCJt66AOL4l6c63fx9-35" value="" style="edgeStyle=orthogonalEdgeStyle;rounded=0;orthogonalLoop=1;jettySize=auto;html=1;fontSize=13;" edge="1" parent="1" source="olBCJt66AOL4l6c63fx9-32" target="olBCJt66AOL4l6c63fx9-34">
          <mxGeometry relative="1" as="geometry" />
        </mxCell>
        <mxCell id="olBCJt66AOL4l6c63fx9-32" value="&lt;span&gt;Exportación de imagen en PNG de cada uno de los banners&lt;/span&gt;" style="whiteSpace=wrap;html=1;fontSize=13;fontFamily=Times New Roman;rounded=0;" vertex="1" parent="1">
          <mxGeometry x="523.5" y="636" width="190" height="37" as="geometry" />
        </mxCell>
        <mxCell id="olBCJt66AOL4l6c63fx9-37" value="" style="edgeStyle=orthogonalEdgeStyle;rounded=0;orthogonalLoop=1;jettySize=auto;html=1;fontSize=13;" edge="1" parent="1" source="olBCJt66AOL4l6c63fx9-34" target="olBCJt66AOL4l6c63fx9-36">
          <mxGeometry relative="1" as="geometry" />
        </mxCell>
        <mxCell id="olBCJt66AOL4l6c63fx9-34" value="&lt;font&gt;El área de diseño ingresas con credenciales administrativas en Blackboard&lt;/font&gt;" style="whiteSpace=wrap;html=1;fontSize=13;fontFamily=Times New Roman;rounded=0;" vertex="1" parent="1">
          <mxGeometry x="535" y="698" width="167" height="60" as="geometry" />
        </mxCell>
        <mxCell id="olBCJt66AOL4l6c63fx9-39" value="" style="edgeStyle=orthogonalEdgeStyle;rounded=0;orthogonalLoop=1;jettySize=auto;html=1;fontSize=13;" edge="1" parent="1" source="olBCJt66AOL4l6c63fx9-36" target="olBCJt66AOL4l6c63fx9-38">
          <mxGeometry relative="1" as="geometry" />
        </mxCell>
        <mxCell id="olBCJt66AOL4l6c63fx9-36" value="Administrador/Cursos/Filtrar por periodo/Ingresar ID de cada aula/Buscar imagen del curso/clic en editar configuración de visualización/icono de imagen del curso/cargar archivo" style="whiteSpace=wrap;html=1;fontSize=13;fontFamily=Times New Roman;rounded=0;" vertex="1" parent="1">
          <mxGeometry x="475.90999999999997" y="790" width="285.18" height="100" as="geometry" />
        </mxCell>
        <mxCell id="olBCJt66AOL4l6c63fx9-38" value="Validar que todo este correcto" style="whiteSpace=wrap;html=1;fontSize=13;fontFamily=Times New Roman;rounded=0;" vertex="1" parent="1">
          <mxGeometry x="558.5" y="912" width="120" height="40" as="geometry" />
        </mxCell>
        <mxCell id="olBCJt66AOL4l6c63fx9-40" value="SI" style="text;html=1;align=center;verticalAlign=middle;resizable=0;points=[];autosize=1;strokeColor=none;fillColor=none;" vertex="1" parent="1">
          <mxGeometry x="465" y="527" width="29" height="26" as="geometry" />
        </mxCell>
      </root>
    </mxGraphModel>
  </diagram>
</mxfile>
